<?xml version="1.0" encoding="UTF-8" standalone="no"?>
<!-- Generator: Adobe Illustrator 16.0.0, SVG Export Plug-In . SVG Version: 6.00 Build 0)  -->

<svg
   xmlns:dc="http://purl.org/dc/elements/1.1/"
   xmlns:cc="http://creativecommons.org/ns#"
   xmlns:rdf="http://www.w3.org/1999/02/22-rdf-syntax-ns#"
   xmlns:svg="http://www.w3.org/2000/svg"
   xmlns="http://www.w3.org/2000/svg"
   xmlns:sodipodi="http://sodipodi.sourceforge.net/DTD/sodipodi-0.dtd"
   xmlns:inkscape="http://www.inkscape.org/namespaces/inkscape"
   version="1.1"
   id="Layer_1"
   x="0px"
   y="0px"
   width="512px"
   height="512px"
   viewBox="0 0 512 512"
   enable-background="new 0 0 512 512"
   xml:space="preserve"
   inkscape:version="0.48.4 r9939"
   sodipodi:docname="icon-getdown.svg"
   inkscape:export-filename="/home/lm/git/getdown.git/src/main/dart/web/favicon.ico.png"
   inkscape:export-xdpi="5.625"
   inkscape:export-ydpi="5.625"><metadata
     id="metadata5147"><rdf:RDF><cc:Work
         rdf:about=""><dc:format>image/svg+xml</dc:format><dc:type
           rdf:resource="http://purl.org/dc/dcmitype/StillImage" /><dc:title></dc:title></cc:Work></rdf:RDF></metadata><defs
     id="defs5145" /><sodipodi:namedview
     pagecolor="#ffffff"
     bordercolor="#666666"
     borderopacity="1"
     objecttolerance="10"
     gridtolerance="10"
     guidetolerance="10"
     inkscape:pageopacity="0"
     inkscape:pageshadow="2"
     inkscape:window-width="952"
     inkscape:window-height="1055"
     id="namedview5143"
     showgrid="false"
     inkscape:zoom="3.0534718"
     inkscape:cx="256"
     inkscape:cy="297.60223"
     inkscape:window-x="0"
     inkscape:window-y="0"
     inkscape:window-maximized="0"
     inkscape:current-layer="Layer_1" /><path
     d="m 321.04006,32.556592 c 53.031,0 96,42.969 96,95.999998 0,12.625 -2.594,24.625 -7.031,35.688 40.844,11.062 71.031,48 71.031,92.312 0,53.031 -42.969,96 -96,96 h -272 c -44.188004,0 -80.000004,-35.813 -80.000004,-80 0,-44.187 35.813,-80 80.000004,-80 2.453,0 4.75,0.5 7.141,0.719 -4.5,-10 -7.141,-21.031 -7.141,-32.719 0,-44.188 35.813,-79.999998 80,-79.999998 14.438,0 27.797,4.125 39.484,10.813 14.532,-34.563 48.672,-58.813 88.516,-58.813 m 0,-31.9999996 c -40.938,0 -78.531,19.3439996 -102.344,51.0629996 -8.39,-2.032 -16.953,-3.063 -25.656,-3.063 -61.75,0 -112.000004,50.25 -112.000004,111.999998 0,1.563 0.031,3.094 0.094,4.625 -46.266,13.75 -80.0940001,56.688 -80.0940001,107.375 0,61.75 50.2500001,112 112.0000041,112 h 272 c 70.594,0 128,-57.406 128,-128 0,-46.656 -25.656,-88.813 -65.156,-111.125 0.781,-5.562 1.156,-11.219 1.156,-16.875 0,-70.561998 -57.406,-127.9999976 -128,-127.9999976 l 0,0 z"
     id="path5141"
     inkscape:connector-curvature="0" /><g
     transform="translate(-10.852081,-4.7276786)"
     id="g4509"><rect
       rx="0.76703107"
       ry="0.76703107"
       y="201.26663"
       x="236.05385"
       height="220.90495"
       width="57.143814"
       id="rect4347"
       style="fill:#000080;fill-opacity:1;stroke:none" /><rect
       transform="matrix(-5.784112e-4,0.99999983,-0.99999983,-5.784112e-4,0,0)"
       rx="0.76703107"
       ry="0.76703107"
       y="-375.32877"
       x="404.56845"
       height="220.90495"
       width="57.143814"
       id="rect4347-2"
       style="fill:#000080;fill-opacity:1;stroke:none" /><rect
       transform="matrix(0.70710678,-0.70710678,0.70710678,0.70710678,0,0)"
       rx="0.76703107"
       ry="0.76703107"
       y="342.45581"
       x="-120.47781"
       height="110.50496"
       width="57.143814"
       id="rect4347-5"
       style="fill:#000080;fill-opacity:1;stroke:none" /><rect
       transform="matrix(0.70710678,0.70710678,-0.70710678,0.70710678,0,0)"
       rx="0.76703107"
       ry="0.76703107"
       y="-31.492132"
       x="436.77679"
       height="110.50496"
       width="57.143814"
       id="rect4347-5-3"
       style="fill:#000080;fill-opacity:1;stroke:none" /></g></svg>